<svg width="24" height="24" viewBox="0 0 24 24" fill="none" xmlns="http://www.w3.org/2000/svg">
<path d="M21 9.99997H3M16 1.99997V5.99997M8 1.99997V5.99997M7.8 22H16.2C17.8802 22 18.7202 22 19.362 21.673C19.9265 21.3854 20.3854 20.9264 20.673 20.3619C21 19.7202 21 18.8801 21 17.2V8.79997C21 7.11981 21 6.27973 20.673 5.638C20.3854 5.07351 19.9265 4.61457 19.362 4.32695C18.7202 3.99997 17.8802 3.99997 16.2 3.99997H7.8C6.11984 3.99997 5.27976 3.99997 4.63803 4.32695C4.07354 4.61457 3.6146 5.07351 3.32698 5.638C3 6.27973 3 7.11981 3 8.79997V17.2C3 18.8801 3 19.7202 3.32698 20.3619C3.6146 20.9264 4.07354 21.3854 4.63803 21.673C5.27976 22 6.11984 22 7.8 22Z" stroke="#232323" stroke-width="2" stroke-linecap="round" stroke-linejoin="round"/>
</svg>
